<svg xmlns="http://www.w3.org/2000/svg" viewBox="0 0 128 128" role="img" aria-labelledby="title desc">
  <title>PG Manager Icon</title>
  <desc>Minimal apartment silhouette with a keyhole badge</desc>
  <defs>
    <linearGradient id="bg" x1="0" x2="1" y1="0" y2="1">
      <stop offset="0%" stop-color="#2563eb" />
      <stop offset="100%" stop-color="#0ea5e9" />
    </linearGradient>
    <linearGradient id="badge" x1="0" x2="0" y1="0" y2="1">
      <stop offset="0%" stop-color="#f97316" />
      <stop offset="100%" stop-color="#fb923c" />
    </linearGradient>
  </defs>
  <rect width="128" height="128" rx="28" fill="url(#bg)" />
  <g fill="#fff" opacity="0.95">
    <path d="M36 100V46c0-8 6.5-14 14.5-14H78c8 0 14.5 6 14.5 14v54z" />
    <rect x="48" y="58" width="12" height="14" rx="2" />
    <rect x="68" y="58" width="12" height="14" rx="2" />
    <rect x="48" y="78" width="12" height="14" rx="2" />
    <rect x="68" y="78" width="12" height="14" rx="2" />
    <rect x="58" y="90" width="12" height="18" rx="4" />
  </g>
  <circle cx="96" cy="40" r="18" fill="url(#badge)" />
  <path fill="#fff" d="M96 32a6 6 0 1 1-4.5 10l-3.8 3.8a1.5 1.5 0 0 1-2.1 0l-1.4-1.4a1.5 1.5 0 0 1 0-2.1l3.8-3.8A6 6 0 0 1 96 32Z" />
</svg>
